<svg width="860" height="266" viewBox="0 0 860 266" fill="none" xmlns="http://www.w3.org/2000/svg">
<path fill-rule="evenodd" clip-rule="evenodd" d="M787.062 55.0802H460.649C460.477 54.8767 460.303 54.6713 460.125 54.464C449.166 41.7026 449.612 35.2603 450.308 25.2105C450.498 22.4652 450.707 19.4507 450.707 15.9646C450.707 2.96665 464.892 0.659036 471.984 1.12997H554.999C567.556 1.12997 572.788 1.12998 576.625 9.60692C580.462 18.0839 582.555 22.6755 588.136 22.3223C591.546 22.1065 593.263 20.044 595.914 16.8604C597.6 14.8343 599.665 12.3542 602.785 9.60692C604.605 8.00481 605.671 6.69338 606.541 5.62318C609.506 1.97463 610.193 1.12997 630.69 1.12997C657.199 1.12997 688.242 3.24922 716.844 11.3729C741.713 18.4364 765.283 32.4929 787.062 55.0802Z" fill="white"/>
<path fill-rule="evenodd" clip-rule="evenodd" d="M391.385 54.4354H7.64684C2.40449 47.2952 0.77888 38.1074 0.640198 34.086V10.7387C0.640198 2.68151 6.43893 0.667237 9.33829 0.66724H123.328C131.743 0.66724 131.651 9.56047 131.581 16.3309C131.515 22.6809 133.221 28.5925 140.725 28.5925C145.852 28.5925 147.134 21.5731 147.134 18.0633C147.134 1.58282 163.919 -0.400943 172.312 0.66724L292.319 0.66724C292.319 0.66724 355.768 4.22037 391.385 54.4354Z" fill="white"/>
<path fill-rule="evenodd" clip-rule="evenodd" d="M469.778 121.393V77.2901C469.778 76.9057 469.784 76.5188 469.791 76.1259C469.866 71.5452 469.954 66.1561 460.187 54.5947L786.6 54.5947C789.869 57.9851 793.098 61.5677 796.284 65.3477C807.488 78.6371 816.59 99.4568 823.314 121.393H730.837C727.134 103.618 711.427 72.3453 674.874 72.3453H588.72C584.302 71.6388 575.465 73.6168 575.465 87.1799V121.393H469.778Z" fill="white"/>
<path fill-rule="evenodd" clip-rule="evenodd" d="M20.2879 121.183V74.7788C19.3723 71.7269 15.8931 63.7918 9.30094 56.4671C8.69919 55.7985 8.1361 55.1019 7.6095 54.3847L391.347 54.3847C403.141 71.0125 411.883 92.7568 414.26 121.183H327.577C321.006 85.0457 291.935 74.7788 272.814 74.7788H168.204C164.77 75.0077 155.428 71.208 149.385 65.1652C141.832 57.6116 132.447 58.2983 132.447 72.032V121.183H20.2879Z" fill="white"/>
<path fill-rule="evenodd" clip-rule="evenodd" d="M823.32 121.045L730.843 121.045C731.451 123.964 731.735 126.518 731.735 128.511C731.735 139.813 727.317 141.933 725.108 141.579H596.748C579.727 141.579 575.471 132.867 575.471 128.511V121.045H469.784V179.019C469.831 181.069 469.634 184.263 468.956 187.843H576.135C576.102 186.524 576.049 185.203 575.997 183.902C575.632 174.795 575.306 166.657 582.098 166.657H727.201C731.735 167.01 740.804 169.977 740.804 179.019C740.804 181.925 741.127 184.855 741.47 187.843H836.422C835.052 169.637 830.568 144.693 823.32 121.045Z" fill="white"/>
<path fill-rule="evenodd" clip-rule="evenodd" d="M414.261 121.045H327.579C328.454 125.859 328.93 131.132 328.93 136.901C328.93 178.297 295.163 186.41 271.59 187.843H405.75C411.526 173.448 414.906 156.588 414.906 136.901C414.906 131.397 414.685 126.115 414.261 121.045ZM20.2898 187.843H132.449V121.045H20.2898V187.843Z" fill="white"/>
<path fill-rule="evenodd" clip-rule="evenodd" d="M836.507 187.495H741.556C741.571 187.628 741.587 187.761 741.602 187.894L741.602 187.894C742.582 196.412 743.619 205.424 737.751 215.758C735.89 218.937 732.728 226.707 734.96 232.358C737.193 238.01 737.751 246.016 737.751 249.312C738.216 254.61 741.657 265.206 751.703 265.206H849.717C853.321 264.736 860.39 258.99 859.832 239.776C859.699 235.207 859.655 231.38 859.617 228.131V228.128C859.457 214.299 859.418 210.949 853.205 205.515C850.152 202.845 846.935 201.517 844.166 200.374C839.974 198.644 836.811 197.339 836.811 192.446C836.738 190.86 836.636 189.207 836.507 187.495ZM576.221 187.495H469.042C468.047 192.757 466.015 198.856 462.196 203.395C460.853 204.991 459.628 206.35 458.518 207.58L458.518 207.58C452.997 213.702 450.336 216.651 450.336 229.886V253.551C449.755 257.436 452.848 265.206 469.869 265.206H558.814C563.349 265.206 573.185 262.875 576.255 253.551C576.725 248.276 578.345 243.499 579.913 238.877C581.636 233.796 583.296 228.901 583.296 223.737C582.684 219.86 581.601 217.858 580.44 215.71C579.492 213.957 578.491 212.107 577.651 209.06C576.193 203.77 576.225 196.937 576.249 191.779C576.252 191.151 576.255 190.547 576.255 189.974C576.255 189.151 576.242 188.324 576.221 187.495Z" fill="white"/>
<path fill-rule="evenodd" clip-rule="evenodd" d="M405.753 187.495H271.593C267.22 187.761 263.198 187.798 259.807 187.774H184.61C171.059 187.774 166.301 199.091 161.515 210.475C161.289 211.013 161.062 211.551 160.835 212.089C156.806 221.611 151.527 223.991 149.39 223.991C136.572 223.991 132.757 203.849 132.452 193.777V187.495H20.2928V190.573C20.1402 192.709 18.2785 198.904 12.0525 206.595C10.3335 208.719 8.79314 210.105 7.44136 211.322C2.67327 215.614 0.25108 217.794 0.607753 242.761C0.912937 250.238 5.27721 265.193 20.2928 265.193H85.7571C93.3107 265.422 111.393 262.904 123.296 251.001C138.174 236.123 143.439 237.725 156.715 251.001C169.991 264.277 171.491 265.193 208.572 265.193H277.572C312.925 265.44 381.121 248.885 405.753 187.495Z" fill="white"/>
</svg>
