<svg width="1424" height="269" viewBox="0 0 1424 269" fill="none" xmlns="http://www.w3.org/2000/svg">
<path fill-rule="evenodd" clip-rule="evenodd" d="M346.321 262.888C346.321 262.888 394.46 232.616 395.681 137.555C394.118 78.0558 372.812 31.8577 344.674 13.1325C344.674 1.51059 361.931 3.58717 361.931 3.58717H432.364C443.018 3.58717 447.457 3.58717 450.712 12.0641C453.968 20.5411 455.743 25.1327 460.478 24.7795C463.372 24.5637 464.829 22.5012 467.078 19.3176C472.667 11.4051 477.486 7.30606 492.613 7.30606C496.972 7.30606 501.441 7.18517 506.028 7.06112C525.111 6.54498 546.213 5.97425 569.68 13.8301C593.947 21.9539 616.757 39.3275 637.472 68.2904C658.188 97.2532 670.439 161.984 671.779 196.084C671.779 200.977 674.463 202.282 678.019 204.013C680.369 205.155 683.099 206.484 685.688 209.153C690.96 214.587 690.993 217.937 691.129 231.766C691.141 232.986 691.128 235.353 691.113 238.076C691.089 242.607 691.059 248.123 691.129 250.978C691.553 268.201 686.925 268.525 683.758 268.746C683.392 268.771 683.046 268.796 682.729 268.844H599.57C591.047 268.844 588.127 258.248 587.732 252.95C587.732 249.654 587.259 241.648 585.365 235.996C583.471 230.345 586.154 222.575 587.732 219.396C592.711 209.062 591.831 200.05 591 191.532C590.695 188.405 590.396 185.344 590.396 182.309C590.396 173.267 582.701 170.3 578.854 169.947H465.511C458.408 169.947 450.712 182.309 450.712 193.612C450.712 194.185 450.71 194.789 450.708 195.417C450.687 200.575 450.66 207.409 451.897 212.698C452.61 215.745 453.459 217.596 454.263 219.349C455.249 221.496 456.168 223.498 456.687 227.376C456.687 232.539 455.278 237.434 453.816 242.515C452.486 247.137 451.111 251.914 450.712 257.189C448.108 266.513 439.763 268.844 435.915 268.844H360.451C348.386 268.844 346.321 262.888 346.321 262.888ZM450.712 119.522V83.7475C450.712 74.1949 451.897 68.2904 462.212 68.2904H541.776C586.841 68.2904 587.418 102.923 587.641 116.332C587.662 117.601 587.68 118.681 587.732 119.522C588.336 129.255 585.365 136.979 578.854 136.979H521.361H465.511C451.069 136.979 450.712 123.878 450.712 119.522Z" fill="#D9D9D9"/>
<path fill-rule="evenodd" clip-rule="evenodd" d="M18.0069 71.3906V189.428C17.8716 191.597 16.2218 197.886 10.7042 205.693C9.18082 207.849 7.81575 209.256 6.61779 210.491C2.39226 214.848 0.245693 217.061 0.56178 242.405C0.832237 249.996 4.69989 265.176 18.0069 265.176H81.9628C101.255 265.176 106.297 257.64 109.381 250.77C115.25 237.697 126.978 235.952 133.252 250.77C141.694 270.708 152 265.176 184.862 265.176H246.01C284.687 265.486 352.981 239.803 352.981 134.592C349.745 19.3096 263.2 0.71281 209.534 0.71281C209.534 0.71281 195.76 0.71281 163.626 0.71281C148.427 0.71281 138.905 -1.57438 133.252 12.0075C130.803 17.8907 128.611 21.7549 124.067 21.7549C117.417 21.7549 118.845 17.6155 116.603 12.0074C112.087 0.712806 108.761 0.712791 101.304 0.712791H16.0978C5.50325 0.712791 0.56178 7.50899 0.56178 15.688V30.031C0.697027 34.5233 2.42804 45.3666 8.27012 52.802C14.1122 60.2374 17.1955 68.2925 18.0069 71.3906ZM117.403 93.1152V192.681C117.674 202.905 119.026 211.27 130.386 211.27C147.814 211.27 142.712 196.66 161.915 196.66H229.187C248.39 196.815 285.858 184.409 285.858 134.592C285.858 71.3905 236.172 66.4907 214.447 66.4907H138.905C128.952 66.4907 117.403 71.3906 117.403 93.1152Z" fill="#D9D9D9"/>
<path fill-rule="evenodd" clip-rule="evenodd" d="M774.843 268.844H738.393C741.74 268.406 743.42 266.301 743.005 251.181C742.927 248.324 742.96 242.804 742.988 238.269C743.004 235.544 743.019 233.176 743.005 231.955C742.978 229.433 743.002 227.088 743.024 224.907C743.126 215.12 743.193 208.628 738.393 204.181C735.509 201.509 730.687 198.337 728.072 197.193C724.112 195.462 722.476 189.624 722.208 183.502C720.688 148.732 707.794 87.4142 685.782 63.3746C678.278 53.9442 668.007 41.4094 660.033 34.3539C660.033 34.3539 660.032 17.8788 660.032 14.7778C660.032 14.281 660.017 13.7937 660.002 13.3136C659.923 10.797 659.851 8.47686 662.007 6.00546C664.301 3.37638 666.242 3.41426 668.192 3.45232C668.424 3.45687 668.657 3.46141 668.891 3.46142C670.165 3.46149 692.953 3.46144 717.427 3.46139C735.01 3.46135 753.464 3.4613 765.438 3.4613C777.43 3.4613 780.481 8.55856 780.481 8.55856C786.012 13.3163 785.454 21.3565 785.454 21.3565V46.5813C785.454 47.0136 785.459 47.4212 785.464 47.8083C785.493 50.1205 785.513 51.7002 784.367 53.4182C783.616 54.5443 782.596 55.278 781.492 56.072C780.629 56.6922 779.716 57.3492 778.84 58.2586C774.675 62.5807 774.732 71.0055 774.817 83.672C774.83 85.5642 774.843 87.5511 774.843 89.6331V194.538C802.505 155.198 844.713 87.7864 848.707 80.7927C854.389 70.8414 848.206 64.6661 843.108 59.5753C840.31 56.78 837.838 54.3117 837.838 51.7249V17.1391C837.838 13.4721 839.503 7.8333 843.108 5.35156C845.289 3.85072 856.68 3.46145 857.495 3.46142H933.884C937.952 3.4613 944.795 6.90885 947.253 12.6805C950.51 20.3275 940.31 58.8396 935.296 59.3539C929.275 59.9713 924.429 62.63 919.811 65.8059C917.587 67.3355 908.011 74.0526 903.269 80.7927C897.78 88.5938 774.843 268.844 774.843 268.844Z" fill="#D9D9D9"/>
<path fill-rule="evenodd" clip-rule="evenodd" d="M1085.34 2.24791C1085.47 1.74192 1085.58 1.25902 1085.69 0.800926H1085.34V2.24791ZM1141.14 265.264H1095.12C1103.74 263.264 1105.43 257.487 1105.03 254.309V230.637C1105.03 217.398 1102.75 214.447 1098.01 208.323L1098.01 208.323C1097.06 207.092 1096.01 205.733 1094.86 204.137C1089.35 196.506 1088.18 184.469 1088.28 179.405V77.2943C1088.28 76.9104 1088.27 76.5239 1088.27 76.1315L1088.27 76.1299V76.1298C1088.2 71.4669 1088.12 65.9667 1096.95 53.975C1106.35 41.2094 1105.97 34.7649 1105.37 24.7118L1105.37 24.7113L1105.37 24.711L1105.37 24.7109C1105.21 21.9649 1105.03 18.9497 1105.03 15.4628C1105.03 5.3238 1097.63 1.68742 1091.49 0.800926H1161.28C1169.05 0.800926 1172.51 0.800941 1177.22 12.0955C1177.84 13.5958 1178.19 14.991 1178.51 16.2299C1179.36 19.6221 1179.92 21.8431 1184.99 21.8431C1189.72 21.8431 1192.01 17.9789 1194.56 12.0956C1199.67 0.309856 1207.81 0.473536 1220.22 0.722938C1222.11 0.760946 1224.1 0.800945 1226.19 0.800945H1274.01C1329.9 0.800945 1420.04 19.3977 1423.41 134.68C1423.41 239.891 1352.28 265.574 1312 265.264H1248.31C1241.4 265.264 1235.45 265.49 1230.28 265.685L1230.28 265.685C1209.83 266.46 1201.58 266.772 1194.56 250.858C1188.02 236.04 1175.81 237.785 1169.7 250.858C1166.48 257.728 1161.23 265.264 1141.14 265.264ZM1178.05 93.2033V192.769C1178.33 202.993 1179.74 211.358 1191.57 211.358C1200.43 211.358 1203.7 207.88 1207.05 204.318C1210.57 200.58 1214.17 196.748 1224.41 196.748H1294.48C1314.48 196.903 1353.5 184.497 1353.5 134.68C1353.5 71.4787 1301.75 66.5789 1279.13 66.5789H1200.45C1190.08 66.5789 1178.05 71.4787 1178.05 93.2033Z" fill="#D9D9D9"/>
<path fill-rule="evenodd" clip-rule="evenodd" d="M989.565 69.3636C983.545 69.9811 978.698 72.6397 974.081 75.8157C971.857 77.3453 962.281 84.0624 957.539 90.8025C956.403 92.4161 950.243 101.408 941.185 114.657V116.597C941.185 117.306 941.175 118.247 941.096 119.325V188.59C941.155 189.299 941.185 190.007 941.185 190.711C941.185 191.284 941.187 191.888 941.19 192.517C941.211 197.677 941.238 204.513 939.987 209.803C939.267 212.852 938.409 214.703 937.596 216.456C936.6 218.605 935.671 220.607 935.146 224.486C935.146 229.652 936.57 234.548 938.048 239.63C939.392 244.254 940.782 249.033 941.185 254.309C943.817 263.637 952.252 265.969 956.141 265.969H1032.42C1047.01 265.969 1049.67 258.196 1049.17 254.309V230.637C1049.17 217.398 1046.89 214.447 1042.15 208.324C1041.2 207.093 1040.15 205.734 1039 204.137C1033.49 196.506 1032.32 184.469 1032.42 179.405V77.2944C1032.42 76.9105 1032.41 76.524 1032.41 76.1316L1032.41 76.13C1032.34 71.467 1032.26 65.9668 1041.09 53.9752C1050.49 41.2095 1050.11 34.765 1049.51 24.7119C1049.35 21.9659 1049.17 18.9499 1049.17 15.463C1049.17 2.46069 1037 0.152306 1030.92 0.623402H1003.64C1015.14 0.623402 1002.55 68.032 989.565 69.3636Z" fill="#D9D9D9"/>
</svg>
