<svg
  width="2698"
  height="1044"
  viewBox="0 0 2698 1044"
  fill="none"
  xmlns="http://www.w3.org/2000/svg"
>
  <path
    fill-rule="evenodd"
    clip-rule="evenodd"
    d="M51.265 739.006C39.7315 698.639 63.9049 667.955 82.0892 667.955C124.44 667.955 151.058 617.079 157.046 568.536C162.29 526.023 161.193 445.263 143.172 405.617C130.608 377.974 114.539 381.87 94.3546 386.762C85.5897 388.887 76.0487 391.2 65.6818 391.2C4.41022 380.387 -0.99609 284.876 0.806014 243.427C2.60812 201.979 -2.79819 97.4569 90.9113 81.238C141.991 72.3973 198.961 79.6198 258.318 87.1449C307.856 93.4252 359.056 99.9163 409.884 97.4569C521.614 92.0506 543.239 131.697 563.063 155.124C571.292 164.849 574.862 188.858 578.545 213.617C583.733 248.502 589.143 284.876 608.115 284.876C632.063 284.876 633.607 268.073 636.023 241.775C638.153 218.599 640.96 188.048 660.376 155.124C701.825 84.8422 954.12 70.4254 1166.77 70.4254C1336.89 70.4254 1444.29 126.891 1476.73 155.124L1509.17 115.478C1571.32 48.8858 1722.18 52.7742 1820.05 55.2968C1841.37 55.8462 1860.17 56.3308 1875 56.0085C1941.31 54.5668 2142.91 65.0191 2235.42 70.4254C2267.25 77.0331 2334.53 79.7963 2348.95 37.9875C2364.21 -6.25741 2407.88 -1.41902 2460.29 4.38687C2469.78 5.43876 2479.56 6.52242 2489.51 7.35168C2503.47 8.51464 2519.01 9.34405 2535.02 10.1987C2593.45 13.3169 2658.16 16.7707 2675.13 37.9875C2713.44 85.8723 2691.35 168.354 2691.35 225.406C2691.35 254.24 2666.12 277.067 2653.5 284.876C2686.42 303.311 2682.78 350.61 2678.43 407.09L2678.43 407.096C2676.83 427.91 2675.13 449.972 2675.13 472.295C2675.13 513.713 2680.62 556.284 2686.13 599.099V599.101C2694.77 666.126 2703.49 733.748 2691.35 798.476C2685.94 827.309 2635.48 886.779 2588.63 895.789C2551.15 902.998 2463.68 898.793 2424.64 895.789C2366.97 895.789 2235.9 898.673 2181.12 910.206C2136.1 919.685 2129.17 926.691 2117.92 938.061C2112.07 943.984 2105.04 951.092 2090.84 960.351C1989.96 1026.14 1834.48 1050.84 1716.41 1041.76C1646.13 1036.35 1622.7 1011.12 1588.46 971.478C1561.07 939.761 1538 886.779 1528.99 848.935C1519.38 874.765 1487.9 902.637 1446.09 930.029C1393.83 964.269 1173.98 982.291 1017.19 993.103C884.162 1002.28 843.586 964.823 817.808 933.267C802.754 914.838 792.432 890.473 781.83 868.723C771.69 847.919 761.896 827.825 739.669 818.299C701.825 802.08 589.742 836.007 575.678 848.935C562.319 861.214 552.499 896.846 544.207 926.934C538.585 947.332 533.666 965.182 528.823 971.478C480.801 1033.91 181.62 969.917 126.953 948.05C108.932 940.842 96.3176 919.217 90.9113 886.779C85.505 854.341 65.6818 789.465 51.265 739.006ZM54.7185 258.589C54.7185 289.717 74.6573 316.699 84.8866 329.997C96.9925 345.735 111.97 345.031 126.405 344.353C136.941 343.858 147.188 343.377 155.82 349.311C192.178 374.307 196.745 659.129 155.82 680.283C120.572 698.503 110.727 728.683 122.521 765.929L122.872 767.035C131.304 793.659 138.933 817.749 141.925 842.207C146.108 876.396 157.311 886.911 172.237 896.24C197.989 912.335 459.366 928.735 488.337 916.932C532.795 898.82 503.81 828.804 537.696 804.266C568.813 781.733 732.983 764.565 765.173 781.733C784.279 791.922 793.179 811.562 802.193 831.452C808.366 845.075 819.307 857.819 828.903 868.723C852.509 895.548 915.394 911.567 1019.48 911.567C1033.65 911.567 1049.47 911.885 1066.44 912.226C1174.1 914.392 1327.95 917.486 1399.32 846.113C1443.85 801.584 1489.45 692.673 1491.6 553.182C1493.75 413.691 1442.24 282.784 1366.06 217.331C1289.87 151.878 1148.24 129.344 986.213 137.928C824.189 146.513 731.91 151.878 691.136 188.36C667.505 209.503 661.174 260.918 655.641 305.847C651.626 338.443 648.033 367.625 638.558 379.355C616.025 407.253 563.709 386.26 558.083 371.844C552.861 358.463 551.709 337.438 550.4 313.54L550.4 313.536C547.405 258.865 543.587 189.16 488.337 161.535C439.322 137.027 300.651 137.597 232.14 137.878C225.661 137.904 219.809 137.928 214.721 137.928C202.206 137.928 190.02 137.105 178.289 136.312C134.81 133.374 97.5891 130.859 73.0835 172.265C48.1897 214.327 54.7185 240.06 54.7185 258.589ZM500.257 618.271C537.696 634.978 528.823 553.182 636.023 560.114C727.705 566.041 1116.51 605.72 1164.04 605.72C1211.58 605.72 1263.06 574.404 1246.58 553.182C1212.8 509.655 977.157 509.655 899.764 509.655C782.13 509.655 550.4 494.408 500.257 520.289C480.203 530.639 462.817 601.565 500.257 618.271ZM1580.62 321.678C1581.27 273.067 1594.21 168.75 1640.72 140.372C1687.23 111.993 1792.14 108.183 1838.78 109.826L2185.63 117.708C2230.62 120.664 2328.31 123.226 2359.05 109.826C2397.48 93.0744 2382.7 64.4989 2419.16 51.6892C2445.32 42.4954 2498.39 48.5292 2541.2 53.3967C2575.05 57.2443 2618.03 49.8488 2643.82 74.3525C2663.53 93.0744 2668.45 191.61 2649.73 224.127C2639.26 242.32 2626.01 240.464 2596.52 236.334C2537.04 228.002 2477.93 232.41 2418.16 232.215C2342.58 231.97 2289.19 231.796 2269.38 288.176C2260.51 336.458 2277.27 389.668 2295 394.595C2328.64 407.09 2347.31 359.736 2347.31 359.736C2368.49 332.859 2381.32 307.883 2419.16 303.941C2466.45 299.015 2580.76 303.942 2600.46 312.81C2620.17 321.678 2629.04 339.414 2624.11 401.492C2619.19 463.57 2628.05 540.428 2635.94 618.271C2643.82 696.115 2631.01 779.87 2584.7 816.329C2538.39 852.787 2531.49 855.743 2425.07 857.714C2409.3 858.006 2392.26 858.229 2374.55 858.46C2272.77 859.789 2148.73 861.41 2114.31 878.196C2100.21 885.075 2087.6 893.311 2075.34 901.311C2042.64 922.658 2013.03 931.855 1975.2 936.799C1897.44 946.961 1708.39 971.665 1670.28 945.411C1625.94 914.865 1602.29 865.597 1591.45 798.592C1580.62 731.588 1581.6 653.744 1615.1 618.271C1648.61 582.798 1740.24 584.769 1838.78 590.681C2001.32 600.434 2165.75 612.656 2328.64 610.222C2393.25 609.257 2473.67 633.658 2515.72 595.608C2536.96 576.396 2552.18 427.112 2531.49 407.404C2514.93 391.639 2497 396.894 2490.1 401.492C2474.99 440.907 2436.89 522.494 2405.36 533.53C2373.83 544.567 2242.45 538.129 2180.7 533.53C2009.58 529.917 1656.88 514.612 1615.1 482.292C1573.32 449.972 1574.7 361.749 1580.62 321.678Z"
    fill="white"
  />
</svg>
